# xmcd
#
# Track frame offsets:
#	150
#	20350
#	42949
#	62326
#	114077
#	138252
#	150361
#	177744
#	210472
#	226709
#
# Disc length: 3162 seconds
#
# Revision: 1
# Processed by: cddbd v1.5.2PL0 Copyright (c) Steve Scherf et al.
# Submitted via: CDmax 2.0
#
DISCID=700c580a
DTITLE=The Blues Project - Projections [CD1 Of 2)
DYEAR=1966
DGENRE=Blues
TTITLE0=I Can't Keep From Cryin' Sometimes
TTITLE1=Steve's Song
TTITLE2=You Can't Catch Me
TTITLE3=Two Trains Running
TTITLE4=Wake Me, Shake Me
TTITLE5=Cheryl's Going Home
TTITLE6=The Flute Thing
TTITLE7=Caress Me Baby
TTITLE8=Fly Away
TTITLE9=Love Will Endure
EXTD=
EXTT0=
EXTT1=
EXTT2=
EXTT3=
EXTT4=
EXTT5=
EXTT6=
EXTT7=
EXTT8=
EXTT9=
PLAYORDER=
